<?xml version="1.0" encoding="utf-8"?>
<!-- Generator: Adobe Illustrator 21.1.0, SVG Export Plug-In . SVG Version: 6.00 Build 0)  -->
<svg version="1.1" id="Layer_1" xmlns="http://www.w3.org/2000/svg" xmlns:xlink="http://www.w3.org/1999/xlink" x="0px" y="0px"
	 viewBox="0 0 300 158" style="enable-background:new 0 0 300 158;" xml:space="preserve">
<style type="text/css">
	.st0{fill:#FFFFFF;}
</style>
<path class="st0" d="M24.1,99l10.6,28.2L45.4,99h6.1v33.6h-4.2v-27.9h-0.1l-10.5,27.9h-3.8l-10.5-27.9h-0.1v27.9h-4.2V99H24.1z"/>
<path class="st0" d="M63.6,99v33.6h-4.5V99H63.6z"/>
<path class="st0" d="M75.7,99v29.8h17.8v3.8H71.2V99H75.7z"/>
<path class="st0" d="M101.9,99v29.8h17.8v3.8H97.4V99H101.9z"/>
<path class="st0" d="M128.2,99v14.4h17.7V99h4.5v33.6h-4.5v-15.4h-17.7v15.4h-4.5V99H128.2z"/>
<path class="st0" d="M156.9,109.1c0.7-2.1,1.7-4,3-5.6c1.4-1.6,3-2.9,5.1-3.9s4.4-1.5,7-1.5c2.7,0,5,0.5,7,1.5c2,1,3.7,2.3,5,3.9
	c1.4,1.6,2.4,3.5,3,5.6c0.7,2.1,1,4.3,1,6.6s-0.3,4.5-1,6.6c-0.7,2.1-1.7,4-3,5.6c-1.4,1.6-3,2.9-5,3.9c-2,1-4.4,1.4-7,1.4
	c-2.7,0-5-0.5-7-1.4c-2-1-3.7-2.2-5.1-3.9c-1.4-1.6-2.4-3.5-3-5.6c-0.7-2.1-1-4.3-1-6.6S156.2,111.3,156.9,109.1z M161,120.8
	c0.4,1.6,1.1,3.1,2.1,4.4c0.9,1.3,2.2,2.4,3.6,3.2s3.2,1.2,5.3,1.2c2,0,3.8-0.4,5.3-1.2c1.5-0.8,2.7-1.9,3.6-3.2
	c0.9-1.3,1.6-2.8,2.1-4.4c0.4-1.6,0.7-3.3,0.7-5c0-1.7-0.2-3.4-0.7-5c-0.4-1.6-1.1-3.1-2.1-4.4c-0.9-1.3-2.2-2.4-3.6-3.2
	c-1.5-0.8-3.2-1.2-5.3-1.2c-2,0-3.8,0.4-5.3,1.2s-2.7,1.9-3.6,3.2c-0.9,1.3-1.6,2.8-2.1,4.4c-0.4,1.6-0.7,3.3-0.7,5
	C160.3,117.4,160.6,119.1,161,120.8z"/>
<path class="st0" d="M217.1,130.1c-2.3,2.1-5.6,3.2-9.8,3.2c-4.3,0-7.7-1-10.2-3.1c-2.4-2.1-3.7-5.3-3.7-9.8V99h4.5v21.4
	c0,3,0.8,5.3,2.4,6.8c1.6,1.6,3.9,2.3,6.9,2.3c2.9,0,5-0.8,6.5-2.3c1.5-1.6,2.2-3.8,2.2-6.8V99h4.5v21.4
	C220.5,124.7,219.4,127.9,217.1,130.1z"/>
<path class="st0" d="M244.6,103.5c-1.5-1.1-3.4-1.6-5.7-1.6c-0.9,0-1.9,0.1-2.8,0.3s-1.7,0.5-2.4,0.9c-0.7,0.4-1.3,1-1.7,1.8
	c-0.4,0.7-0.6,1.7-0.6,2.8c0,1,0.3,1.9,0.9,2.5c0.6,0.6,1.4,1.2,2.5,1.6c1,0.4,2.2,0.7,3.5,1c1.3,0.3,2.6,0.6,3.9,0.9
	c1.3,0.3,2.7,0.7,3.9,1.1c1.3,0.4,2.4,1,3.5,1.7c1,0.7,1.8,1.6,2.5,2.7c0.6,1.1,0.9,2.5,0.9,4.1c0,1.8-0.4,3.3-1.2,4.6
	s-1.8,2.3-3.1,3.1c-1.3,0.8-2.7,1.4-4.2,1.7c-1.6,0.4-3.1,0.5-4.6,0.5c-1.9,0-3.7-0.2-5.4-0.7s-3.2-1.2-4.4-2.1
	c-1.3-1-2.3-2.2-3-3.7c-0.7-1.5-1.1-3.3-1.1-5.3h4.2c0,1.4,0.3,2.6,0.8,3.6s1.3,1.9,2.2,2.5c0.9,0.7,1.9,1.1,3.1,1.5
	c1.2,0.3,2.4,0.5,3.7,0.5c1,0,2-0.1,3-0.3s1.9-0.5,2.8-1c0.8-0.5,1.5-1.1,2-1.9c0.5-0.8,0.8-1.8,0.8-3c0-1.2-0.3-2.1-0.9-2.8
	c-0.6-0.7-1.4-1.3-2.5-1.8c-1-0.5-2.2-0.8-3.5-1.1c-1.3-0.3-2.6-0.6-3.9-0.9c-1.3-0.3-2.7-0.6-3.9-1c-1.3-0.4-2.4-0.9-3.5-1.6
	c-1-0.6-1.8-1.5-2.5-2.5c-0.6-1-0.9-2.3-0.9-3.8c0-1.7,0.3-3.2,1-4.4c0.7-1.2,1.6-2.3,2.8-3.1c1.1-0.8,2.5-1.4,3.9-1.8
	c1.5-0.4,3-0.6,4.5-0.6c1.7,0,3.3,0.2,4.8,0.6c1.5,0.4,2.8,1.1,3.9,1.9s2,2,2.6,3.3c0.6,1.3,1,2.9,1.1,4.8h-4.2
	C246.9,106.4,246.1,104.6,244.6,103.5z"/>
<path class="st0" d="M281.6,99v3.8h-18.8v10.7h17.5v3.8h-17.5v11.6h18.9v3.8h-23.4V99H281.6z"/>
<path class="st0" d="M300.2,158.2H-0.3V-0.2h300.5V158.2z M4.2,153.8h291.5V4.2H4.2V153.8z"/>
<polygon class="st0" points="151.7,76.3 149.1,69.5 146.6,76.3 "/>
<polygon class="st0" points="137.2,21.7 115.4,78.3 121.9,78.3 137.2,37.6 146,61.1 149.1,52.9 "/>
<polygon class="st0" points="149.1,69.5 151.7,76.3 158.1,76.3 152.3,61.1 "/>
<polygon class="st0" points="149.1,69.5 152.3,61.1 161.1,37.6 176.4,78.3 182.9,78.3 161.1,21.7 149.1,52.9 146,61.1 140.1,76.3 
	146.6,76.3 "/>
<rect x="145.4" y="68.7" class="st0" width="6.9" height="7.6"/>
</svg>
