<?xml version="1.0" encoding="utf-8"?>
<!-- Generator: Adobe Illustrator 16.0.0, SVG Export Plug-In . SVG Version: 6.00 Build 0)  -->
<!DOCTYPE svg PUBLIC "-//W3C//DTD SVG 1.1//EN" "http://www.w3.org/Graphics/SVG/1.1/DTD/svg11.dtd">
<svg version="1.1" xmlns="http://www.w3.org/2000/svg" xmlns:xlink="http://www.w3.org/1999/xlink" x="0px" y="0px" width="300px"
	 height="158px" viewBox="0 0 300 158" enable-background="new 0 0 300 158" xml:space="preserve">
<g id="Layer_1">
	<text transform="matrix(1.0036 0 0 1 14.1724 132.5332)" font-family="'HelveticaNeue'" font-size="47.0296">MILLHOUSE</text>
	<rect x="1.917" y="2" fill="none" stroke="#000000" stroke-width="4.5" stroke-miterlimit="10" width="296" height="154"/>
</g>
<g id="Layer_3">
	<polygon fill="none" points="151.702,76.329 149.138,69.493 146.572,76.329 	"/>
	<polygon points="137.16,21.722 115.422,78.278 121.887,78.278 137.16,37.577 145.982,61.089 149.138,52.883 	"/>
	<polygon points="149.138,69.493 151.702,76.329 158.15,76.329 152.293,61.088 	"/>
	<polygon points="149.138,69.493 152.293,61.088 161.116,37.577 176.389,78.278 182.854,78.278 161.116,21.722 149.138,52.883 
		145.982,61.089 140.125,76.329 146.572,76.329 	"/>
</g>
<g id="Layer_2">
	<rect x="145.394" y="68.709" width="6.925" height="7.62"/>
</g>
<g id="Layer_4" display="none">
</g>
</svg>
